REM DIRINDEX 1\2,1\3,1\4,1\5
REM DIRNAME cjc154,folder01,folder02,folder03,folder04
TITLE ""
FILE "CD1Track10.mp3" MP3
  TRACK 01 AUDIO
    TITLE "5:cjc154_0913"
    INDEX 01 00:00:00
  TRACK 02 AUDIO
    TITLE "0:"
    INDEX 01 00:01:46
  TRACK 03 AUDIO
    TITLE "2:cjc154_0914"
    INDEX 01 00:02:45
  TRACK 04 AUDIO
    TITLE "3:cjc154_0915"
    INDEX 01 00:04:72
  TRACK 05 AUDIO
    TITLE "2:cjc154_0916"
    INDEX 01 00:07:27
  TRACK 06 AUDIO
    TITLE "3:cjc154_0917"
    INDEX 01 00:08:58
  TRACK 07 AUDIO
    TITLE "2:cjc154_0918"
    INDEX 01 00:10:19
  TRACK 08 AUDIO
    TITLE "3:cjc154_0919"
    INDEX 01 00:12:34
  TRACK 09 AUDIO
    TITLE "2:cjc154_0920"
    INDEX 01 00:14:51
  TRACK 10 AUDIO
    TITLE "3:cjc154_0921"
    INDEX 01 00:16:38
  TRACK 11 AUDIO
    TITLE "2:cjc154_0922"
    INDEX 01 00:18:29
  TRACK 12 AUDIO
    TITLE "3:cjc154_0923"
    INDEX 01 00:20:57
  TRACK 13 AUDIO
    TITLE "2:cjc154_0924"
    INDEX 01 00:23:10
  TRACK 14 AUDIO
    TITLE "3:cjc154_0925"
    INDEX 01 00:25:25
  TRACK 15 AUDIO
    TITLE "2:cjc154_0926"
    INDEX 01 00:27:41
  TRACK 16 AUDIO
    TITLE "3:cjc154_0927"
    INDEX 01 00:29:25
  TRACK 17 AUDIO
    TITLE "2:cjc154_0928"
    INDEX 01 00:31:12
  TRACK 18 AUDIO
    TITLE "3:cjc154_0929"
    INDEX 01 00:33:13
  TRACK 19 AUDIO
    TITLE "2:cjc154_0930"
    INDEX 01 00:35:19
  TRACK 20 AUDIO
    TITLE "3:cjc154_0931"
    INDEX 01 00:37:48
  TRACK 21 AUDIO
    TITLE "2:cjc154_0932"
    INDEX 01 00:40:13
  TRACK 22 AUDIO
    TITLE "3:cjc154_0933"
    INDEX 01 00:41:57
  TRACK 23 AUDIO
    TITLE "2:cjc154_0934"
    INDEX 01 00:43:39
  TRACK 24 AUDIO
    TITLE "3:cjc154_0935"
    INDEX 01 00:45:08
  TRACK 25 AUDIO
    TITLE "2:cjc154_0936"
    INDEX 01 00:46:64
  TRACK 26 AUDIO
    TITLE "3:cjc154_0937"
    INDEX 01 00:47:72
  TRACK 27 AUDIO
    TITLE "2:cjc154_0938"
    INDEX 01 00:49:12
  TRACK 28 AUDIO
    TITLE "3:cjc154_0939"
    INDEX 01 00:51:20
  TRACK 29 AUDIO
    TITLE "2:cjc154_0940"
    INDEX 01 00:53:39
  TRACK 30 AUDIO
    TITLE "3:cjc154_0941"
    INDEX 01 00:55:51
  TRACK 31 AUDIO
    TITLE "2:cjc154_0942"
    INDEX 01 00:57:70
  TRACK 32 AUDIO
    TITLE "3:cjc154_0943"
    INDEX 01 00:59:24
  TRACK 33 AUDIO
    TITLE "2:cjc154_0944"
    INDEX 01 01:00:62
  TRACK 34 AUDIO
    TITLE "3:cjc154_0945"
    INDEX 01 01:02:14
  TRACK 35 AUDIO
    TITLE "2:cjc154_0946"
    INDEX 01 01:03:47
  TRACK 36 AUDIO
    TITLE "3:cjc154_0947"
    INDEX 01 01:05:05
  TRACK 37 AUDIO
    TITLE "2:cjc154_0948"
    INDEX 01 01:06:49
  TRACK 38 AUDIO
    TITLE "3:cjc154_0949"
    INDEX 01 01:08:42
  TRACK 39 AUDIO
    TITLE "2:cjc154_0950"
    INDEX 01 01:10:57
  TRACK 40 AUDIO
    TITLE "3:cjc154_0951"
    INDEX 01 01:13:30
  TRACK 41 AUDIO
    TITLE "2:cjc154_0952"
    INDEX 01 01:16:07
  TRACK 42 AUDIO
    TITLE "3:cjc154_0953"
    INDEX 01 01:19:07
  TRACK 43 AUDIO
    TITLE "2:cjc154_0954"
    INDEX 01 01:22:03
  TRACK 44 AUDIO
    TITLE "3:cjc154_0955"
    INDEX 01 01:23:63
  TRACK 45 AUDIO
    TITLE "2:cjc154_0956"
    INDEX 01 01:25:53
  TRACK 46 AUDIO
    TITLE "3:cjc154_0957"
    INDEX 01 01:27:08
  TRACK 47 AUDIO
    TITLE "2:cjc154_0958"
    INDEX 01 01:28:47
  TRACK 48 AUDIO
    TITLE "3:cjc154_0959"
    INDEX 01 01:30:48
  TRACK 49 AUDIO
    TITLE "2:cjc154_0960"
    INDEX 01 01:32:62
  TRACK 50 AUDIO
    TITLE "3:cjc154_0961"
    INDEX 01 01:35:10
  TRACK 51 AUDIO
    TITLE "2:cjc154_0962"
    INDEX 01 01:37:42
  TRACK 52 AUDIO
    TITLE "3:cjc154_0963"
    INDEX 01 01:39:49
  TRACK 53 AUDIO
    TITLE "2:cjc154_0964"
    INDEX 01 01:41:56
  TRACK 54 AUDIO
    TITLE "3:cjc154_0965"
    INDEX 01 01:44:11
  TRACK 55 AUDIO
    TITLE "2:cjc154_0966"
    INDEX 01 01:46:51
  TRACK 56 AUDIO
    TITLE "3:cjc154_0967"
    INDEX 01 01:47:68
  TRACK 57 AUDIO
    TITLE "2:cjc154_0968"
    INDEX 01 01:49:14
  TRACK 58 AUDIO
    TITLE "3:cjc154_0969"
    INDEX 01 01:50:64
  TRACK 59 AUDIO
    TITLE "2:cjc154_0970"
    INDEX 01 01:52:49
  TRACK 60 AUDIO
    TITLE "3:cjc154_0971"
    INDEX 01 01:54:15
  TRACK 61 AUDIO
    TITLE "2:cjc154_0972"
    INDEX 01 01:55:63
  TRACK 62 AUDIO
    TITLE "3:cjc154_0973"
    INDEX 01 01:58:23
  TRACK 63 AUDIO
    TITLE "2:cjc154_0974"
    INDEX 01 02:00:55
  TRACK 64 AUDIO
    TITLE "3:cjc154_0975"
    INDEX 01 02:02:71
  TRACK 65 AUDIO
    TITLE "2:cjc154_0976"
    INDEX 01 02:05:23
  TRACK 66 AUDIO
    TITLE "3:cjc154_0977"
    INDEX 01 02:07:20
  TRACK 67 AUDIO
    TITLE "2:cjc154_0978"
    INDEX 01 02:09:26
  TRACK 68 AUDIO
    TITLE "3:cjc154_0979"
    INDEX 01 02:11:14
  TRACK 69 AUDIO
    TITLE "2:cjc154_0980"
    INDEX 01 02:13:09
  TRACK 70 AUDIO
    TITLE "3:cjc154_0981"
    INDEX 01 02:15:21
  TRACK 71 AUDIO
    TITLE "2:cjc154_0982"
    INDEX 01 02:17:44
  TRACK 72 AUDIO
    TITLE "3:cjc154_0983"
    INDEX 01 02:20:12
  TRACK 73 AUDIO
    TITLE "2:cjc154_0984"
    INDEX 01 02:22:66
  TRACK 74 AUDIO
    TITLE "3:cjc154_0985"
    INDEX 01 02:25:06
  TRACK 75 AUDIO
    TITLE "2:cjc154_0986"
    INDEX 01 02:27:26
  TRACK 76 AUDIO
    TITLE "3:cjc154_0987"
    INDEX 01 02:29:47
  TRACK 77 AUDIO
    TITLE "2:cjc154_0988"
    INDEX 01 02:32:02
  TRACK 78 AUDIO
    TITLE "3:cjc154_0989"
    INDEX 01 02:33:64
  TRACK 79 AUDIO
    TITLE "2:cjc154_0990"
    INDEX 01 02:35:61
  TRACK 80 AUDIO
    TITLE "3:cjc154_0991"
    INDEX 01 02:38:08
  TRACK 81 AUDIO
    TITLE "2:cjc154_0992"
    INDEX 01 02:40:37
  TRACK 82 AUDIO
    TITLE "3:cjc154_0993"
    INDEX 01 02:43:02
  TRACK 83 AUDIO
    TITLE "2:cjc154_0994"
    INDEX 01 02:45:54
  TRACK 84 AUDIO
    TITLE "3:cjc154_0995"
    INDEX 01 02:47:39
  TRACK 85 AUDIO
    TITLE "2:cjc154_0996"
    INDEX 01 02:49:30
  TRACK 86 AUDIO
    TITLE "3:cjc154_0997"
    INDEX 01 02:50:59
  TRACK 87 AUDIO
    TITLE "2:cjc154_0998"
    INDEX 01 02:52:20
  TRACK 88 AUDIO
    TITLE "3:cjc154_0999"
    INDEX 01 02:53:57
  TRACK 89 AUDIO
    TITLE "2:cjc154_1000"
    INDEX 01 02:55:09
  TRACK 90 AUDIO
    TITLE "3:cjc154_1001"
    INDEX 01 02:57:08
  TRACK 91 AUDIO
    TITLE "2:cjc154_1002"
    INDEX 01 02:59:22
  TRACK 92 AUDIO
    TITLE "3:cjc154_1003"
    INDEX 01 03:00:43
  TRACK 93 AUDIO
    TITLE "2:cjc154_1004"
    INDEX 01 03:01:66
  TRACK 94 AUDIO
    TITLE "3:cjc154_1005"
    INDEX 01 03:03:50
  TRACK 95 AUDIO
    TITLE "2:cjc154_1006"
    INDEX 01 03:05:35
  TRACK 96 AUDIO
    TITLE "3:cjc154_1007"
    INDEX 01 03:07:20
  TRACK 97 AUDIO
    TITLE "2:cjc154_1008"
    INDEX 01 03:09:05
  TRACK 98 AUDIO
    TITLE "3:cjc154_1009"
    INDEX 01 03:10:46
  TRACK 99 AUDIO
    TITLE "2:cjc154_1010"
    INDEX 01 03:12:19
  TRACK 100 AUDIO
    TITLE "3:cjc154_1011"
    INDEX 01 03:13:44
  TRACK 101 AUDIO
    TITLE "2:cjc154_1012"
    INDEX 01 03:15:06
  TRACK 102 AUDIO
    TITLE "3:cjc154_1013"
    INDEX 01 03:17:44
  TRACK 103 AUDIO
    TITLE "2:cjc154_1014"
    INDEX 01 03:20:19
  TRACK 104 AUDIO
    TITLE "3:cjc154_1015"
    INDEX 01 03:23:05
  TRACK 105 AUDIO
    TITLE "2:cjc154_1016"
    INDEX 01 03:26:06
  TRACK 106 AUDIO
    TITLE "3:cjc154_1017"
    INDEX 01 03:27:25
  TRACK 107 AUDIO
    TITLE "2:cjc154_1018"
    INDEX 01 03:28:48
  TRACK 108 AUDIO
    TITLE "3:cjc154_1019"
    INDEX 01 03:30:19
  TRACK 109 AUDIO
    TITLE "2:cjc154_1020"
    INDEX 01 03:32:02
  TRACK 110 AUDIO
    TITLE "3:cjc154_1021"
    INDEX 01 03:34:05
  TRACK 111 AUDIO
    TITLE "2:cjc154_1022"
    INDEX 01 03:36:20
  TRACK 112 AUDIO
    TITLE "3:cjc154_1023"
    INDEX 01 03:37:62
  TRACK 113 AUDIO
    TITLE "2:cjc154_1024"
    INDEX 01 03:39:34
  TRACK 114 AUDIO
    TITLE "3:cjc154_1025"
    INDEX 01 03:41:17
  TRACK 115 AUDIO
    TITLE "2:cjc154_1026"
    INDEX 01 03:43:10
  TRACK 116 AUDIO
    TITLE "3:cjc154_1027"
    INDEX 01 03:44:64
  TRACK 117 AUDIO
    TITLE "2:cjc154_1028"
    INDEX 01 03:46:51
  TRACK 118 AUDIO
    TITLE "3:cjc154_1029"
    INDEX 01 03:48:27
  TRACK 119 AUDIO
    TITLE "2:cjc154_1030"
    INDEX 01 03:50:08
  TRACK 120 AUDIO
    TITLE "3:cjc154_1031"
    INDEX 01 03:51:58
  TRACK 121 AUDIO
    TITLE "2:cjc154_1032"
    INDEX 01 03:53:42
  TRACK 122 AUDIO
    TITLE "3:cjc154_1033"
    INDEX 01 03:55:27
  TRACK 123 AUDIO
    TITLE "2:cjc154_1034"
    INDEX 01 03:57:20
  TRACK 124 AUDIO
    TITLE "3:cjc154_1035"
    INDEX 01 04:00:06
  TRACK 125 AUDIO
    TITLE "2:cjc154_1036"
    INDEX 01 04:03:01
  TRACK 126 AUDIO
    TITLE "3:cjc154_1037"
    INDEX 01 04:04:45
  TRACK 127 AUDIO
    TITLE "2:cjc154_1038"
    INDEX 01 04:06:29
  TRACK 128 AUDIO
    TITLE "3:cjc154_1039"
    INDEX 01 04:08:10
  TRACK 129 AUDIO
    TITLE "2:cjc154_1040"
    INDEX 01 04:09:72
  TRACK 130 AUDIO
    TITLE "3:cjc154_1041"
    INDEX 01 04:12:02
  TRACK 131 AUDIO
    TITLE "2:cjc154_1042"
    INDEX 01 04:14:06
  TRACK 132 AUDIO
    TITLE "3:cjc154_1043"
    INDEX 01 04:16:72
  TRACK 133 AUDIO
    TITLE "2:cjc154_1044"
    INDEX 01 04:19:64
  TRACK 134 AUDIO
    TITLE "3:cjc154_1045"
    INDEX 01 04:22:24
  TRACK 135 AUDIO
    TITLE "2:cjc154_1046"
    INDEX 01 04:24:62
  TRACK 136 AUDIO
    TITLE "3:cjc154_1047"
    INDEX 01 04:26:18
  TRACK 137 AUDIO
    TITLE "2:cjc154_1048"
    INDEX 01 04:27:50
  TRACK 138 AUDIO
    TITLE "3:cjc154_1049"
    INDEX 01 04:29:16
  TRACK 139 AUDIO
    TITLE "2:cjc154_1050"
    INDEX 01 04:30:64
  TRACK 140 AUDIO
    TITLE "3:cjc154_1051"
    INDEX 01 04:32:28
  TRACK 141 AUDIO
    TITLE "2:cjc154_1052"
    INDEX 01 04:33:72
  TRACK 142 AUDIO
    TITLE "3:cjc154_1053"
    INDEX 01 04:35:32
  TRACK 143 AUDIO
    TITLE "2:cjc154_1054"
    INDEX 01 04:37:04
  TRACK 144 AUDIO
    TITLE "3:cjc154_1055"
    INDEX 01 04:38:48
  TRACK 145 AUDIO
    TITLE "2:cjc154_1056"
    INDEX 01 04:40:27
  TRACK 146 AUDIO
    TITLE "3:cjc154_1057"
    INDEX 01 04:41:48
  TRACK 147 AUDIO
    TITLE "2:cjc154_1058"
    INDEX 01 04:43:02
  TRACK 148 AUDIO
    TITLE "3:cjc154_1059"
    INDEX 01 04:44:55
  TRACK 149 AUDIO
    TITLE "2:cjc154_1060"
    INDEX 01 04:46:40
  TRACK 150 AUDIO
    TITLE "3:cjc154_1061"
    INDEX 01 04:48:62
  TRACK 151 AUDIO
    TITLE "2:cjc154_1062"
    INDEX 01 04:51:19
  TRACK 152 AUDIO
    TITLE "3:cjc154_1063"
    INDEX 01 04:52:25
  TRACK 153 AUDIO
    TITLE "2:cjc154_1064"
    INDEX 01 04:53:38
  TRACK 154 AUDIO
    TITLE "3:cjc154_1065"
    INDEX 01 04:55:47
  TRACK 155 AUDIO
    TITLE "2:cjc154_1066"
    INDEX 01 04:57:61
  TRACK 156 AUDIO
    TITLE "3:cjc154_1067"
    INDEX 01 04:59:40
  TRACK 157 AUDIO
    TITLE "2:cjc154_1068"
    INDEX 01 05:01:30
  TRACK 158 AUDIO
    TITLE "3:cjc154_1069"
    INDEX 01 05:02:51
  TRACK 159 AUDIO
    TITLE "2:cjc154_1070"
    INDEX 01 05:04:06
  TRACK 160 AUDIO
    TITLE "3:cjc154_1071"
    INDEX 01 05:05:63
  TRACK 161 AUDIO
    TITLE "2:cjc154_1072"
    INDEX 01 05:07:48
  TRACK 162 AUDIO
    TITLE "3:cjc154_1073"
    INDEX 01 05:09:60
  TRACK 163 AUDIO
    TITLE "2:cjc154_1074"
    INDEX 01 05:12:06
  TRACK 164 AUDIO
    TITLE "3:cjc154_1075"
    INDEX 01 05:14:17
  TRACK 165 AUDIO
    TITLE "2:cjc154_1076"
    INDEX 01 05:16:41
  TRACK 166 AUDIO
    TITLE "3:cjc154_1077"
    INDEX 01 05:18:14
  TRACK 167 AUDIO
    TITLE "2:cjc154_1078"
    INDEX 01 05:19:61
  TRACK 168 AUDIO
    TITLE "3:cjc154_1079"
    INDEX 01 05:21:26
  TRACK 169 AUDIO
    TITLE "2:cjc154_1080"
    INDEX 01 05:22:67
  TRACK 170 AUDIO
    TITLE "3:cjc154_1081"
    INDEX 01 05:24:68
  TRACK 171 AUDIO
    TITLE "2:cjc154_1082"
    INDEX 01 05:27:02
  TRACK 172 AUDIO
    TITLE "3:cjc154_1083"
    INDEX 01 05:28:28
  TRACK 173 AUDIO
    TITLE "2:cjc154_1084"
    INDEX 01 05:29:61
  TRACK 174 AUDIO
    TITLE "3:cjc154_1085"
    INDEX 01 05:31:13
  TRACK 175 AUDIO
    TITLE "2:cjc154_1086"
    INDEX 01 05:32:48
  TRACK 176 AUDIO
    TITLE "3:cjc154_1087"
    INDEX 01 05:34:64
  TRACK 177 AUDIO
    TITLE "2:cjc154_1088"
    INDEX 01 05:37:20
  TRACK 178 AUDIO
    TITLE "3:cjc154_1089"
    INDEX 01 05:38:50
  TRACK 179 AUDIO
    TITLE "2:cjc154_1090"
    INDEX 01 05:40:20
  TRACK 180 AUDIO
    TITLE "3:cjc154_1091"
    INDEX 01 05:42:17
  TRACK 181 AUDIO
    TITLE "2:cjc154_1092"
    INDEX 01 05:44:22
  TRACK 182 AUDIO
    TITLE "3:cjc154_1093"
    INDEX 01 05:46:13
  TRACK 183 AUDIO
    TITLE "2:cjc154_1094"
    INDEX 01 05:48:12
  TRACK 184 AUDIO
    TITLE "3:cjc154_1095"
    INDEX 01 05:49:42
  TRACK 185 AUDIO
    TITLE "2:cjc154_1096"
    INDEX 01 05:51:04
  TRACK 186 AUDIO
    TITLE "3:cjc154_1097"
    INDEX 01 05:52:64
  TRACK 187 AUDIO
    TITLE "2:cjc154_1098"
    INDEX 01 05:54:59
  TRACK 188 AUDIO
    TITLE "3:cjc154_1099"
    INDEX 01 05:57:24
  TRACK 189 AUDIO
    TITLE "2:cjc154_1100"
    INDEX 01 05:59:74
  TRACK 190 AUDIO
    TITLE "3:cjc154_1101"
    INDEX 01 06:01:69
  TRACK 191 AUDIO
    TITLE "2:cjc154_1102"
    INDEX 01 06:03:72
  TRACK 192 AUDIO
    TITLE "3:cjc154_1103"
    INDEX 01 06:05:63
  TRACK 193 AUDIO
    TITLE "2:cjc154_1104"
    INDEX 01 06:07:56
  TRACK 194 AUDIO
    TITLE "3:cjc154_1105"
    INDEX 01 06:09:06
  TRACK 195 AUDIO
    TITLE "2:cjc154_1106"
    INDEX 01 06:10:42
  TRACK 196 AUDIO
    TITLE "3:cjc154_1107"
    INDEX 01 06:12:30
  TRACK 197 AUDIO
    TITLE "2:cjc154_1108"
    INDEX 01 06:14:23
  TRACK 198 AUDIO
    TITLE "3:cjc154_1109"
    INDEX 01 06:16:71
  TRACK 199 AUDIO
    TITLE "0:"
    INDEX 01 06:19:45
